<?xml version="1.0" standalone="no"?>
<!DOCTYPE svg PUBLIC "-//W3C//DTD SVG 20010904//EN"
 "http://www.w3.org/TR/2001/REC-SVG-20010904/DTD/svg10.dtd">
<svg version="1.0" xmlns="http://www.w3.org/2000/svg"
 width="250.000000pt" height="250.000000pt" viewBox="0 0 250.000000 250.000000"
 preserveAspectRatio="xMidYMid meet">
<metadata>
Created by potrace 1.16, written by Peter Selinger 2001-2019
</metadata>
<g transform="translate(0.000000,250.000000) scale(0.100000,-0.100000)"
fill="#000000" stroke="none">
<path d="M1165 2484 c-42 -22 -74 -53 -95 -94 -22 -43 -35 -104 -25 -120 6
-10 25 12 86 108 39 60 118 37 105 -30 -5 -25 -3 -28 22 -28 15 0 47 9 71 20
24 11 47 20 52 20 13 0 68 -92 70 -115 l0 -20 9 20 c32 75 -24 195 -112 241
-36 19 -145 18 -183 -2z"/>
<path d="M1033 2107 c-72 -47 -71 -50 20 -95 149 -74 296 -66 438 24 l41 25
-34 25 c-63 48 -88 57 -106 41 -76 -66 -202 -64 -277 3 -19 18 -22 17 -82 -23z"/>
<path d="M615 1527 c-101 -49 -160 -145 -159 -257 2 -78 21 -126 75 -185 81
-87 217 -113 325 -60 198 97 208 380 17 492 -37 22 -61 27 -127 30 -70 4 -88
1 -131 -20z m230 -11 c81 -37 134 -109 150 -202 7 -46 -4 -57 -41 -44 -15 6
-23 20 -28 49 -7 45 -60 112 -105 135 -102 52 -230 2 -276 -106 -12 -29 -21
-38 -40 -38 -33 0 -37 11 -20 62 49 141 219 210 360 144z m-42 -70 c41 -17 91
-74 107 -121 22 -68 -23 -175 -88 -209 -122 -62 -272 25 -272 159 0 40 22 100
48 129 43 49 141 69 205 42z"/>
<path d="M1665 1534 c-172 -61 -231 -300 -109 -442 105 -123 304 -126 415 -5
22 24 47 59 54 76 57 137 -6 301 -140 363 -59 28 -155 31 -220 8z m200 -8 c63
-27 104 -66 136 -131 34 -69 32 -85 -9 -85 -23 0 -30 7 -46 45 -22 55 -74 100
-131 114 -109 27 -224 -46 -242 -152 -6 -39 -33 -63 -59 -53 -18 7 -18 30 2
97 19 63 97 148 154 166 51 16 155 15 195 -1z m-22 -82 c45 -23 66 -44 88 -86
37 -73 20 -159 -44 -215 -109 -96 -261 -45 -297 100 -9 35 -9 54 0 82 15 46
65 104 105 121 41 18 110 17 148 -2z"/>
<path d="M95 1408 c-11 -6 -23 -16 -27 -22 -10 -14 -10 -638 0 -652 14 -21 51
-34 95 -34 l45 0 4 -192 c3 -167 7 -200 25 -245 45 -113 139 -206 248 -244 52
-18 88 -19 765 -19 677 0 713 1 765 19 109 38 203 131 248 244 18 45 22 78 25
245 l4 192 45 0 c44 0 81 13 95 34 4 6 8 154 8 328 0 274 -2 319 -16 332 -20
21 -52 28 -100 24 l-39 -3 -5 -295 c-3 -162 -7 -284 -9 -270 -3 22 -4 20 -13
-12 -7 -26 -16 -38 -28 -38 -22 0 -31 29 -40 130 -5 53 -7 10 -9 -150 -2 -260
-13 -396 -35 -436 -8 -16 -15 -26 -16 -22 0 4 -15 -9 -34 -30 l-34 -37 -806
-3 -806 -2 -42 37 c-23 21 -38 31 -33 23 5 -10 5 -12 -3 -5 -5 6 -18 33 -28
60 -14 42 -18 101 -23 360 -4 230 -8 287 -13 220 -7 -99 -20 -145 -41 -145 -8
0 -19 10 -25 23 l-11 22 -3 -25 c-1 -14 -5 114 -8 285 l-5 310 -50 2 c-27 2
-59 -2 -70 -9z"/>
<path d="M1162 1047 c-51 -100 -92 -185 -92 -189 0 -5 81 -8 181 -8 151 0 180
2 177 14 -5 23 -162 365 -168 366 -3 0 -47 -82 -98 -183z"/>
<path d="M884 680 c-30 -12 -71 -64 -79 -99 -9 -40 18 -95 60 -121 31 -19 49
-20 386 -20 328 0 356 2 382 19 77 51 83 136 12 201 l-27 25 -356 2 c-196 1
-366 -2 -378 -7z m114 -112 l-3 -103 -45 4 c-75 5 -119 41 -120 96 0 60 56
104 133 105 l38 0 -3 -102z m227 -1 l0 -99 -87 -1 c-101 -2 -98 -5 -98 105 0
101 -2 99 99 96 l86 -3 0 -98z m229 87 c7 -19 8 -142 0 -169 -5 -18 -13 -20
-92 -18 l-87 1 -3 88 c-2 48 -1 93 2 101 8 21 172 18 180 -3z m149 7 c67 -26
89 -104 43 -157 -18 -22 -35 -29 -80 -34 -31 -3 -59 -4 -61 -1 -3 2 -5 49 -5
103 l0 98 39 0 c22 0 51 -4 64 -9z"/>
</g>
</svg>
